<svg width="122" height="29" viewBox="0 0 122 29" fill="none" xmlns="http://www.w3.org/2000/svg">
<path d="M35.9038 20C35.6985 20 35.5258 19.93 35.3858 19.79C35.2458 19.65 35.1758 19.4773 35.1758 19.272V9.794C35.1758 9.57933 35.2458 9.40667 35.3858 9.276C35.5258 9.136 35.6985 9.066 35.9038 9.066H42.2318C42.4465 9.066 42.6191 9.13133 42.7498 9.262C42.8805 9.38333 42.9458 9.54667 42.9458 9.752C42.9458 9.948 42.8805 10.1067 42.7498 10.228C42.6191 10.3493 42.4465 10.41 42.2318 10.41H36.6318V13.812H40.6498C40.8645 13.812 41.0371 13.8773 41.1678 14.008C41.2985 14.1293 41.3638 14.288 41.3638 14.484C41.3638 14.68 41.2985 14.8433 41.1678 14.974C41.0371 15.0953 40.8645 15.156 40.6498 15.156H36.6318V18.656H42.2318C42.4465 18.656 42.6191 18.7167 42.7498 18.838C42.8805 18.9593 42.9458 19.118 42.9458 19.314C42.9458 19.5193 42.8805 19.6873 42.7498 19.818C42.6191 19.9393 42.4465 20 42.2318 20H35.9038ZM45.4965 20C45.2912 20 45.1185 19.93 44.9785 19.79C44.8385 19.65 44.7685 19.4773 44.7685 19.272V9.794C44.7685 9.57933 44.8385 9.40667 44.9785 9.276C45.1185 9.136 45.2912 9.066 45.4965 9.066H48.0305C48.8332 9.066 49.5612 9.20133 50.2145 9.472C50.8772 9.73333 51.4512 10.1113 51.9365 10.606C52.4219 11.0913 52.7952 11.6653 53.0565 12.328C53.3179 12.9907 53.4485 13.7233 53.4485 14.526C53.4485 15.3287 53.3179 16.066 53.0565 16.738C52.7952 17.4007 52.4219 17.9793 51.9365 18.474C51.4512 18.9593 50.8772 19.3373 50.2145 19.608C49.5612 19.8693 48.8332 20 48.0305 20H45.4965ZM46.2245 18.712H48.0305C48.8145 18.712 49.5052 18.5347 50.1025 18.18C50.7092 17.816 51.1852 17.3213 51.5305 16.696C51.8759 16.0613 52.0485 15.338 52.0485 14.526C52.0485 13.7047 51.8759 12.9813 51.5305 12.356C51.1852 11.7307 50.7092 11.2407 50.1025 10.886C49.5052 10.5313 48.8145 10.354 48.0305 10.354H46.2245V18.712ZM60.1014 20.224C59.2054 20.224 58.412 20.0607 57.7214 19.734C57.0307 19.398 56.4894 18.936 56.0974 18.348C55.7147 17.76 55.5234 17.088 55.5234 16.332V9.794C55.5234 9.57933 55.5934 9.40667 55.7334 9.276C55.8734 9.136 56.046 9.066 56.2514 9.066C56.466 9.066 56.6387 9.136 56.7694 9.276C56.9094 9.40667 56.9794 9.57933 56.9794 9.794V16.332C56.9794 16.836 57.11 17.284 57.3714 17.676C57.642 18.0587 58.0107 18.362 58.4774 18.586C58.9534 18.8007 59.4947 18.908 60.1014 18.908C60.6894 18.908 61.2074 18.8007 61.6554 18.586C62.1127 18.362 62.4674 18.0587 62.7194 17.676C62.9807 17.284 63.1114 16.836 63.1114 16.332V9.794C63.1114 9.57933 63.1814 9.40667 63.3214 9.276C63.4614 9.136 63.634 9.066 63.8394 9.066C64.054 9.066 64.2267 9.136 64.3574 9.276C64.488 9.40667 64.5534 9.57933 64.5534 9.794V16.332C64.5534 17.088 64.362 17.76 63.9794 18.348C63.606 18.936 63.0834 19.398 62.4114 19.734C61.7394 20.0607 60.9694 20.224 60.1014 20.224ZM69.7855 20.056C69.1322 20.056 68.5255 19.958 67.9655 19.762C67.4149 19.5567 66.9855 19.3 66.6775 18.992C66.5375 18.8427 66.4769 18.6747 66.4955 18.488C66.5235 18.292 66.6169 18.1333 66.7755 18.012C66.9622 17.8627 67.1442 17.802 67.3215 17.83C67.5082 17.8487 67.6669 17.928 67.7975 18.068C67.9562 18.2453 68.2082 18.4133 68.5535 18.572C68.9082 18.7213 69.3002 18.796 69.7295 18.796C70.2709 18.796 70.6815 18.7073 70.9615 18.53C71.2509 18.3527 71.4002 18.124 71.4095 17.844C71.4189 17.564 71.2835 17.3213 71.0035 17.116C70.7329 16.9107 70.2335 16.7427 69.5055 16.612C68.5629 16.4253 67.8769 16.1453 67.4475 15.772C67.0275 15.3987 66.8175 14.9413 66.8175 14.4C66.8175 13.924 66.9575 13.532 67.2375 13.224C67.5175 12.9067 67.8769 12.6733 68.3155 12.524C68.7542 12.3653 69.2115 12.286 69.6875 12.286C70.3035 12.286 70.8495 12.384 71.3255 12.58C71.8015 12.776 72.1795 13.0467 72.4595 13.392C72.5902 13.5413 72.6509 13.7 72.6415 13.868C72.6322 14.0267 72.5529 14.162 72.4035 14.274C72.2542 14.3767 72.0769 14.4093 71.8715 14.372C71.6662 14.3347 71.4935 14.2507 71.3535 14.12C71.1202 13.896 70.8682 13.742 70.5975 13.658C70.3269 13.574 70.0142 13.532 69.6595 13.532C69.2489 13.532 68.8989 13.602 68.6095 13.742C68.3295 13.882 68.1895 14.0873 68.1895 14.358C68.1895 14.526 68.2315 14.68 68.3155 14.82C68.4089 14.9507 68.5862 15.072 68.8475 15.184C69.1089 15.2867 69.4915 15.3893 69.9955 15.492C70.6955 15.632 71.2462 15.8093 71.6475 16.024C72.0582 16.2387 72.3522 16.4907 72.5295 16.78C72.7069 17.06 72.7955 17.3867 72.7955 17.76C72.7955 18.1893 72.6789 18.5767 72.4455 18.922C72.2215 19.2673 71.8855 19.5427 71.4375 19.748C70.9989 19.9533 70.4482 20.056 69.7855 20.056ZM75.1051 17.214C74.8998 17.214 74.7271 17.1487 74.5871 17.018C74.4564 16.878 74.3911 16.7053 74.3911 16.5V9.78C74.3911 9.56533 74.4564 9.39267 74.5871 9.262C74.7271 9.13133 74.8998 9.066 75.1051 9.066C75.3198 9.066 75.4924 9.13133 75.6231 9.262C75.7538 9.39267 75.8191 9.56533 75.8191 9.78V16.5C75.8191 16.7053 75.7538 16.878 75.6231 17.018C75.4924 17.1487 75.3198 17.214 75.1051 17.214ZM80.8591 20.014C80.6538 20.014 80.4811 19.9487 80.3411 19.818C80.2104 19.678 80.1451 19.5053 80.1451 19.3V15.856C80.1451 15.324 80.0471 14.89 79.8511 14.554C79.6551 14.218 79.3891 13.9707 79.0531 13.812C78.7264 13.644 78.3484 13.56 77.9191 13.56C77.5271 13.56 77.1724 13.6393 76.8551 13.798C76.5378 13.9567 76.2858 14.1713 76.0991 14.442C75.9124 14.7033 75.8191 15.0067 75.8191 15.352H74.9371C74.9371 14.764 75.0771 14.2413 75.3571 13.784C75.6464 13.3173 76.0384 12.9487 76.5331 12.678C77.0278 12.4073 77.5831 12.272 78.1991 12.272C78.8431 12.272 79.4171 12.412 79.9211 12.692C80.4344 12.9627 80.8358 13.364 81.1251 13.896C81.4238 14.428 81.5731 15.0813 81.5731 15.856V19.3C81.5731 19.5053 81.5031 19.678 81.3631 19.818C81.2324 19.9487 81.0644 20.014 80.8591 20.014ZM75.1051 20.014C74.8998 20.014 74.7271 19.9487 74.5871 19.818C74.4564 19.678 74.3911 19.5053 74.3911 19.3V13.056C74.3911 12.8413 74.4564 12.6687 74.5871 12.538C74.7271 12.4073 74.8998 12.342 75.1051 12.342C75.3198 12.342 75.4924 12.4073 75.6231 12.538C75.7538 12.6687 75.8191 12.8413 75.8191 13.056V19.3C75.8191 19.5053 75.7538 19.678 75.6231 19.818C75.4924 19.9487 75.3198 20.014 75.1051 20.014ZM86.9298 20.056C86.2484 20.056 85.6371 19.888 85.0958 19.552C84.5544 19.2067 84.1251 18.7447 83.8078 18.166C83.4998 17.578 83.3458 16.9153 83.3458 16.178C83.3458 15.4407 83.5138 14.778 83.8498 14.19C84.1951 13.602 84.6571 13.14 85.2358 12.804C85.8238 12.4587 86.4818 12.286 87.2098 12.286C87.9378 12.286 88.5911 12.4587 89.1698 12.804C89.7484 13.14 90.2058 13.602 90.5418 14.19C90.8871 14.778 91.0598 15.4407 91.0598 16.178H90.5138C90.5138 16.9153 90.3551 17.578 90.0378 18.166C89.7298 18.7447 89.3051 19.2067 88.7638 19.552C88.2224 19.888 87.6111 20.056 86.9298 20.056ZM87.2098 18.796C87.6858 18.796 88.1104 18.684 88.4838 18.46C88.8571 18.2267 89.1511 17.914 89.3658 17.522C89.5804 17.1207 89.6878 16.6727 89.6878 16.178C89.6878 15.674 89.5804 15.226 89.3658 14.834C89.1511 14.4327 88.8571 14.12 88.4838 13.896C88.1104 13.6627 87.6858 13.546 87.2098 13.546C86.7431 13.546 86.3184 13.6627 85.9358 13.896C85.5624 14.12 85.2638 14.4327 85.0398 14.834C84.8251 15.226 84.7178 15.674 84.7178 16.178C84.7178 16.6727 84.8251 17.1207 85.0398 17.522C85.2638 17.914 85.5624 18.2267 85.9358 18.46C86.3184 18.684 86.7431 18.796 87.2098 18.796ZM90.3458 20.014C90.1404 20.014 89.9678 19.9487 89.8278 19.818C89.6971 19.678 89.6318 19.5053 89.6318 19.3V17.158L89.8978 15.674L91.0598 16.178V19.3C91.0598 19.5053 90.9898 19.678 90.8498 19.818C90.7191 19.9487 90.5511 20.014 90.3458 20.014ZM93.661 15.212C93.661 14.652 93.7964 14.1527 94.067 13.714C94.347 13.266 94.7204 12.9113 95.187 12.65C95.6537 12.3887 96.167 12.258 96.727 12.258C97.287 12.258 97.7024 12.3513 97.973 12.538C98.253 12.7153 98.3604 12.93 98.295 13.182C98.267 13.3127 98.211 13.4153 98.127 13.49C98.0524 13.5553 97.9637 13.5973 97.861 13.616C97.7584 13.6347 97.6464 13.63 97.525 13.602C96.9277 13.4807 96.391 13.4713 95.915 13.574C95.439 13.6767 95.061 13.868 94.781 14.148C94.5104 14.428 94.375 14.7827 94.375 15.212H93.661ZM93.675 20C93.451 20 93.2784 19.944 93.157 19.832C93.0357 19.7107 92.975 19.5333 92.975 19.3V13.042C92.975 12.818 93.0357 12.6453 93.157 12.524C93.2784 12.4027 93.451 12.342 93.675 12.342C93.9084 12.342 94.081 12.4027 94.193 12.524C94.3144 12.636 94.375 12.8087 94.375 13.042V19.3C94.375 19.524 94.3144 19.6967 94.193 19.818C94.081 19.9393 93.9084 20 93.675 20ZM102.611 20.056C101.836 20.056 101.146 19.8927 100.539 19.566C99.9417 19.23 99.4704 18.7727 99.1251 18.194C98.7891 17.606 98.6211 16.934 98.6211 16.178C98.6211 15.4127 98.7797 14.7407 99.0971 14.162C99.4237 13.574 99.8717 13.1167 100.441 12.79C101.01 12.454 101.664 12.286 102.401 12.286C103.129 12.286 103.754 12.4493 104.277 12.776C104.8 13.0933 105.196 13.5367 105.467 14.106C105.747 14.666 105.887 15.3147 105.887 16.052C105.887 16.2293 105.826 16.3787 105.705 16.5C105.584 16.612 105.43 16.668 105.243 16.668H99.6011V15.548H105.201L104.627 15.94C104.618 15.4733 104.524 15.058 104.347 14.694C104.17 14.3207 103.918 14.0267 103.591 13.812C103.264 13.5973 102.868 13.49 102.401 13.49C101.869 13.49 101.412 13.6067 101.029 13.84C100.656 14.0733 100.371 14.3953 100.175 14.806C99.9791 15.2073 99.8811 15.6647 99.8811 16.178C99.8811 16.6913 99.9977 17.1487 100.231 17.55C100.464 17.9513 100.786 18.2687 101.197 18.502C101.608 18.7353 102.079 18.852 102.611 18.852C102.9 18.852 103.194 18.8007 103.493 18.698C103.801 18.586 104.048 18.46 104.235 18.32C104.375 18.2173 104.524 18.166 104.683 18.166C104.851 18.1567 104.996 18.2033 105.117 18.306C105.276 18.446 105.36 18.6 105.369 18.768C105.378 18.936 105.304 19.0807 105.145 19.202C104.828 19.454 104.431 19.6593 103.955 19.818C103.488 19.9767 103.04 20.056 102.611 20.056Z" fill="black"/>
<path fill-rule="evenodd" clip-rule="evenodd" d="M7.01827 8.31678V26.9677L0.000170708 19.1147V0.463949L0 0.463758H0.000170708V0.463745L0.000182 0.463758H16.668L23.6861 8.31678H7.01827Z" fill="url(#paint0_linear_0_119)"/>
<path fill-rule="evenodd" clip-rule="evenodd" d="M16.6683 19.1147L16.6683 0.463751L23.6864 8.31678L23.6864 26.9675L23.6865 26.9677H23.6864V26.9677L23.6863 26.9677L7.01854 26.9677L0.000436783 19.1147L16.6683 19.1147Z" fill="black"/>
<defs>
<linearGradient id="paint0_linear_0_119" x1="16.668" y1="0.463745" x2="5.00404" y2="26.0495" gradientUnits="userSpaceOnUse">
<stop stop-color="#FF00D6"/>
<stop offset="1" stop-color="#FF4D00"/>
</linearGradient>
</defs>
</svg>
