<svg width="122" height="29" viewBox="0 0 122 29" fill="none" xmlns="http://www.w3.org/2000/svg">
<path d="M35.8789 20C35.6736 20 35.5009 19.93 35.3609 19.79C35.2209 19.65 35.1509 19.4773 35.1509 19.272V9.794C35.1509 9.57933 35.2209 9.40667 35.3609 9.276C35.5009 9.136 35.6736 9.066 35.8789 9.066H42.2069C42.4216 9.066 42.5942 9.13133 42.7249 9.262C42.8556 9.38333 42.9209 9.54667 42.9209 9.752C42.9209 9.948 42.8556 10.1067 42.7249 10.228C42.5942 10.3493 42.4216 10.41 42.2069 10.41H36.6069V13.812H40.6249C40.8396 13.812 41.0122 13.8773 41.1429 14.008C41.2736 14.1293 41.3389 14.288 41.3389 14.484C41.3389 14.68 41.2736 14.8433 41.1429 14.974C41.0122 15.0953 40.8396 15.156 40.6249 15.156H36.6069V18.656H42.2069C42.4216 18.656 42.5942 18.7167 42.7249 18.838C42.8556 18.9593 42.9209 19.118 42.9209 19.314C42.9209 19.5193 42.8556 19.6873 42.7249 19.818C42.5942 19.9393 42.4216 20 42.2069 20H35.8789ZM48.0757 20.056C47.3477 20.056 46.6897 19.888 46.1017 19.552C45.523 19.2067 45.061 18.74 44.7157 18.152C44.3797 17.564 44.2117 16.9013 44.2117 16.164C44.2117 15.4267 44.3657 14.7687 44.6737 14.19C44.991 13.602 45.4203 13.14 45.9617 12.804C46.503 12.4587 47.1143 12.286 47.7957 12.286C48.3463 12.286 48.855 12.4027 49.3217 12.636C49.7883 12.86 50.1803 13.168 50.4977 13.56V9.78C50.4977 9.56533 50.563 9.39267 50.6937 9.262C50.8337 9.13133 51.0063 9.066 51.2117 9.066C51.4263 9.066 51.599 9.13133 51.7297 9.262C51.8603 9.39267 51.9257 9.56533 51.9257 9.78V16.164C51.9257 16.9013 51.753 17.564 51.4077 18.152C51.0717 18.74 50.6143 19.2067 50.0357 19.552C49.457 19.888 48.8037 20.056 48.0757 20.056ZM48.0757 18.796C48.5517 18.796 48.9763 18.684 49.3497 18.46C49.723 18.2267 50.017 17.9093 50.2317 17.508C50.4463 17.1067 50.5537 16.6587 50.5537 16.164C50.5537 15.66 50.4463 15.212 50.2317 14.82C50.017 14.428 49.723 14.12 49.3497 13.896C48.9763 13.6627 48.5517 13.546 48.0757 13.546C47.609 13.546 47.1843 13.6627 46.8017 13.896C46.4283 14.12 46.1297 14.428 45.9057 14.82C45.691 15.212 45.5837 15.66 45.5837 16.164C45.5837 16.6587 45.691 17.1067 45.9057 17.508C46.1297 17.9093 46.4283 18.2267 46.8017 18.46C47.1843 18.684 47.609 18.796 48.0757 18.796ZM57.4574 20.07C56.8134 20.07 56.2347 19.9347 55.7214 19.664C55.2174 19.384 54.8161 18.978 54.5174 18.446C54.2281 17.914 54.0834 17.2607 54.0834 16.486V13.042C54.0834 12.8367 54.1487 12.6687 54.2794 12.538C54.4194 12.398 54.5921 12.328 54.7974 12.328C55.0027 12.328 55.1707 12.398 55.3014 12.538C55.4414 12.6687 55.5114 12.8367 55.5114 13.042V16.486C55.5114 17.0087 55.6094 17.4427 55.8054 17.788C56.0014 18.124 56.2674 18.376 56.6034 18.544C56.9394 18.7027 57.3174 18.782 57.7374 18.782C58.1387 18.782 58.4934 18.7027 58.8014 18.544C59.1187 18.3853 59.3707 18.1707 59.5574 17.9C59.7441 17.6293 59.8374 17.326 59.8374 16.99H60.7194C60.7194 17.5687 60.5747 18.0913 60.2854 18.558C60.0054 19.0247 59.6181 19.3933 59.1234 19.664C58.6381 19.9347 58.0827 20.07 57.4574 20.07ZM60.5514 20C60.3461 20 60.1734 19.9347 60.0334 19.804C59.9027 19.664 59.8374 19.4913 59.8374 19.286V13.042C59.8374 12.8273 59.9027 12.6547 60.0334 12.524C60.1734 12.3933 60.3461 12.328 60.5514 12.328C60.7661 12.328 60.9387 12.3933 61.0694 12.524C61.2001 12.6547 61.2654 12.8273 61.2654 13.042V19.286C61.2654 19.4913 61.2001 19.664 61.0694 19.804C60.9387 19.9347 60.7661 20 60.5514 20ZM64.4384 20C64.2424 20 64.0697 19.93 63.9204 19.79C63.7804 19.65 63.7104 19.4773 63.7104 19.272V9.794C63.7104 9.58867 63.7804 9.416 63.9204 9.276C64.0697 9.136 64.2424 9.066 64.4384 9.066C64.6437 9.066 64.8164 9.136 64.9564 9.276C65.0964 9.416 65.1664 9.58867 65.1664 9.794V13.994L69.8004 9.36C69.9124 9.248 70.015 9.17333 70.1084 9.136C70.2017 9.08933 70.2997 9.066 70.4024 9.066C70.6357 9.066 70.8037 9.136 70.9064 9.276C71.009 9.416 71.0464 9.584 71.0184 9.78C70.9904 9.96667 70.9017 10.1393 70.7524 10.298L67.1824 13.882L70.8224 18.838C70.9344 18.9967 70.981 19.1693 70.9624 19.356C70.9437 19.5333 70.8784 19.6873 70.7664 19.818C70.6544 19.9393 70.505 20 70.3184 20C70.057 20 69.8564 19.8973 69.7164 19.692L66.1744 14.89L65.1664 15.898V19.272C65.1664 19.4773 65.0964 19.65 64.9564 19.79C64.8164 19.93 64.6437 20 64.4384 20ZM75.3363 20.056C74.5803 20.056 73.9129 19.8927 73.3343 19.566C72.7556 19.23 72.2983 18.7727 71.9623 18.194C71.6356 17.606 71.4723 16.934 71.4723 16.178C71.4723 15.4127 71.6356 14.7407 71.9623 14.162C72.2983 13.574 72.7556 13.1167 73.3343 12.79C73.9129 12.454 74.5803 12.286 75.3363 12.286C76.0829 12.286 76.7456 12.454 77.3243 12.79C77.9029 13.1167 78.3556 13.574 78.6823 14.162C79.0183 14.7407 79.1863 15.4127 79.1863 16.178C79.1863 16.934 79.0229 17.606 78.6963 18.194C78.3696 18.7727 77.9169 19.23 77.3383 19.566C76.7596 19.8927 76.0923 20.056 75.3363 20.056ZM75.3363 18.796C75.8216 18.796 76.2509 18.684 76.6243 18.46C76.9976 18.236 77.2869 17.928 77.4923 17.536C77.7069 17.144 77.8143 16.6913 77.8143 16.178C77.8143 15.6647 77.7069 15.212 77.4923 14.82C77.2869 14.4187 76.9976 14.106 76.6243 13.882C76.2509 13.658 75.8216 13.546 75.3363 13.546C74.8509 13.546 74.4216 13.658 74.0483 13.882C73.6749 14.106 73.3809 14.4187 73.1663 14.82C72.9516 15.212 72.8443 15.6647 72.8443 16.178C72.8443 16.6913 72.9516 17.144 73.1663 17.536C73.3809 17.928 73.6749 18.236 74.0483 18.46C74.4216 18.684 74.8509 18.796 75.3363 18.796ZM82.9215 20C82.5109 20 82.1469 19.888 81.8295 19.664C81.5122 19.44 81.2649 19.1367 81.0875 18.754C80.9102 18.362 80.8215 17.914 80.8215 17.41V9.766C80.8215 9.56067 80.8869 9.39267 81.0175 9.262C81.1482 9.13133 81.3162 9.066 81.5215 9.066C81.7269 9.066 81.8949 9.13133 82.0255 9.262C82.1562 9.39267 82.2215 9.56067 82.2215 9.766V17.41C82.2215 17.7553 82.2869 18.04 82.4175 18.264C82.5482 18.488 82.7162 18.6 82.9215 18.6H83.2715C83.4582 18.6 83.6075 18.6653 83.7195 18.796C83.8409 18.9267 83.9015 19.0947 83.9015 19.3C83.9015 19.5053 83.8129 19.6733 83.6355 19.804C83.4582 19.9347 83.2295 20 82.9495 20H82.9215ZM86.9088 20C86.4981 20 86.1341 19.888 85.8168 19.664C85.4995 19.44 85.2521 19.1367 85.0748 18.754C84.8975 18.362 84.8088 17.914 84.8088 17.41V9.766C84.8088 9.56067 84.8741 9.39267 85.0048 9.262C85.1355 9.13133 85.3035 9.066 85.5088 9.066C85.7141 9.066 85.8821 9.13133 86.0128 9.262C86.1435 9.39267 86.2088 9.56067 86.2088 9.766V17.41C86.2088 17.7553 86.2741 18.04 86.4048 18.264C86.5355 18.488 86.7035 18.6 86.9088 18.6H87.2588C87.4455 18.6 87.5948 18.6653 87.7068 18.796C87.8281 18.9267 87.8888 19.0947 87.8888 19.3C87.8888 19.5053 87.8001 19.6733 87.6228 19.804C87.4455 19.9347 87.2168 20 86.9368 20H86.9088ZM91.8442 20.056C91.1629 20.056 90.5516 19.888 90.0102 19.552C89.4689 19.2067 89.0396 18.7447 88.7222 18.166C88.4142 17.578 88.2602 16.9153 88.2602 16.178C88.2602 15.4407 88.4282 14.778 88.7642 14.19C89.1096 13.602 89.5716 13.14 90.1502 12.804C90.7382 12.4587 91.3962 12.286 92.1242 12.286C92.8522 12.286 93.5056 12.4587 94.0842 12.804C94.6629 13.14 95.1202 13.602 95.4562 14.19C95.8016 14.778 95.9742 15.4407 95.9742 16.178H95.4282C95.4282 16.9153 95.2696 17.578 94.9522 18.166C94.6442 18.7447 94.2196 19.2067 93.6782 19.552C93.1369 19.888 92.5256 20.056 91.8442 20.056ZM92.1242 18.796C92.6002 18.796 93.0249 18.684 93.3982 18.46C93.7716 18.2267 94.0656 17.914 94.2802 17.522C94.4949 17.1207 94.6022 16.6727 94.6022 16.178C94.6022 15.674 94.4949 15.226 94.2802 14.834C94.0656 14.4327 93.7716 14.12 93.3982 13.896C93.0249 13.6627 92.6002 13.546 92.1242 13.546C91.6576 13.546 91.2329 13.6627 90.8502 13.896C90.4769 14.12 90.1782 14.4327 89.9542 14.834C89.7396 15.226 89.6322 15.674 89.6322 16.178C89.6322 16.6727 89.7396 17.1207 89.9542 17.522C90.1782 17.914 90.4769 18.2267 90.8502 18.46C91.2329 18.684 91.6576 18.796 92.1242 18.796ZM95.2602 20.014C95.0549 20.014 94.8822 19.9487 94.7422 19.818C94.6116 19.678 94.5462 19.5053 94.5462 19.3V17.158L94.8122 15.674L95.9742 16.178V19.3C95.9742 19.5053 95.9042 19.678 95.7642 19.818C95.6336 19.9487 95.4656 20.014 95.2602 20.014ZM101.74 20.056C101.012 20.056 100.358 19.888 99.7795 19.552C99.2008 19.2067 98.7435 18.74 98.4075 18.152C98.0715 17.564 97.8988 16.9013 97.8895 16.164V9.78C97.8895 9.56533 97.9548 9.39267 98.0855 9.262C98.2255 9.13133 98.3982 9.066 98.6035 9.066C98.8182 9.066 98.9908 9.13133 99.1215 9.262C99.2522 9.39267 99.3175 9.56533 99.3175 9.78V13.56C99.6442 13.168 100.036 12.86 100.494 12.636C100.96 12.4027 101.469 12.286 102.02 12.286C102.701 12.286 103.312 12.4587 103.854 12.804C104.395 13.14 104.82 13.602 105.128 14.19C105.445 14.7687 105.604 15.4267 105.604 16.164C105.604 16.9013 105.431 17.564 105.086 18.152C104.75 18.74 104.292 19.2067 103.714 19.552C103.135 19.888 102.477 20.056 101.74 20.056ZM101.74 18.796C102.216 18.796 102.64 18.684 103.014 18.46C103.387 18.2267 103.681 17.9093 103.896 17.508C104.12 17.1067 104.232 16.6587 104.232 16.164C104.232 15.66 104.12 15.212 103.896 14.82C103.681 14.428 103.387 14.12 103.014 13.896C102.64 13.6627 102.216 13.546 101.74 13.546C101.273 13.546 100.848 13.6627 100.466 13.896C100.092 14.12 99.7982 14.428 99.5835 14.82C99.3688 15.212 99.2615 15.66 99.2615 16.164C99.2615 16.6587 99.3688 17.1067 99.5835 17.508C99.7982 17.9093 100.092 18.2267 100.466 18.46C100.848 18.684 101.273 18.796 101.74 18.796Z" fill="black"/>
<path fill-rule="evenodd" clip-rule="evenodd" d="M7.01827 8.31678V26.9677L0.000170708 19.1147V0.463949L0 0.463758H0.000170708V0.463745L0.000182 0.463758H16.668L23.6861 8.31678H7.01827Z" fill="url(#paint0_linear_0_119)"/>
<path fill-rule="evenodd" clip-rule="evenodd" d="M16.6683 19.1147L16.6683 0.463751L23.6864 8.31678L23.6864 26.9675L23.6865 26.9677H23.6864V26.9677L23.6863 26.9677L7.01854 26.9677L0.000436783 19.1147L16.6683 19.1147Z" fill="black"/>
<defs>
<linearGradient id="paint0_linear_0_119" x1="16.668" y1="0.463745" x2="5.00404" y2="26.0495" gradientUnits="userSpaceOnUse">
<stop stop-color="#FF00D6"/>
<stop offset="1" stop-color="#FF4D00"/>
</linearGradient>
</defs>
</svg>
